<svg width="125" height="24" viewBox="0 0 125 24" fill="none" xmlns="http://www.w3.org/2000/svg">
<g clip-path="url(#clip0_2_1659)">
<path d="M9.77561 3.77724C8.3122 3.77724 7.87317 4.41647 7.87317 5.8402V8.19371H11.7951L11.4146 12.0291H7.87317V23.6223H3.16098V12.0291H0V8.22276H3.16098V5.92736C3.16098 2.0339 4.74147 0 9.10244 0C10.0098 0 10.9463 0.0581114 11.8537 0.174334V3.77724" fill="#DCDCDC"/>
<path d="M12.1169 15.4275C12.1169 11.1273 14.1657 7.87305 18.4974 7.87305C20.8389 7.87305 22.273 9.06433 22.9755 10.5752V8.22171H27.4828V23.6503H22.9462V21.3258C22.3023 22.8077 20.8096 23.9699 18.4681 23.9699C14.1657 23.9699 12.0876 20.7447 12.0876 16.4154L12.1169 15.4275ZM16.8291 16.4735C16.8291 18.7689 17.6779 20.3089 19.873 20.3089C21.8047 20.3089 22.7706 18.9142 22.7706 16.706V15.137C22.7706 12.9287 21.7755 11.5341 19.873 11.5341C17.6779 11.5341 16.8291 13.045 16.8291 15.3694V16.4735Z" fill="#DCDCDC"/>
<path d="M37.2588 7.87305C39.0734 7.87305 40.8295 8.25077 41.7661 8.91905L40.7124 12.2314C39.7466 11.7665 38.6636 11.5341 37.5807 11.5341C35.0344 11.5341 33.9222 12.9868 33.9222 15.4856V16.3864C33.9222 18.8852 35.0344 20.3379 37.5807 20.3379C38.6636 20.3379 39.7466 20.0764 40.7124 19.6115L41.7661 22.9239C40.8295 23.5631 39.1027 23.9699 37.2588 23.9699C31.7271 23.9699 29.2393 21.0353 29.2393 16.2992V15.5728C29.2393 10.8367 31.7271 7.87305 37.2588 7.87305Z" fill="#DCDCDC"/>
<path d="M42.3806 16.5026V15.137C42.3806 10.7496 44.8977 7.87305 50.0196 7.87305C54.8489 7.87305 56.9855 10.7786 56.9855 15.0789V17.5486H47.0928C47.1806 19.6697 48.1465 20.5994 50.7513 20.5994C52.4489 20.5994 54.1465 20.2798 55.7562 19.6697L56.605 22.8658C55.3757 23.505 52.8294 23.999 50.5757 23.999C44.605 23.9699 42.3806 21.0353 42.3806 16.5026ZM47.0928 14.4687H52.7709V14.091C52.7709 12.4057 52.0977 11.0692 50.0196 11.0692C47.9123 11.0692 47.0928 12.4057 47.0928 14.4687Z" fill="#DCDCDC"/>
<path d="M74.4292 16.4169C74.4292 20.7172 72.3512 23.9714 68.0195 23.9714C65.678 23.9714 64.039 22.8092 63.3951 21.3274V23.6518H58.9463V0.465373L63.6585 0.0585938V10.3734C64.3317 9.00775 65.8536 7.90363 68.0487 7.90363C72.3512 7.90363 74.4585 11.1288 74.4585 15.4581L74.4292 16.4169ZM69.717 15.3419C69.717 13.1627 68.8682 11.5356 66.6146 11.5356C64.6829 11.5356 63.6585 12.9012 63.6585 15.1094V16.7366C63.6585 18.9448 64.7121 20.3104 66.6146 20.3104C68.8682 20.3104 69.717 18.6833 69.717 16.5041V15.3419Z" fill="#DCDCDC"/>
<path d="M75.9805 16.2992V15.5147C75.9805 11.0692 78.5268 7.87305 83.7073 7.87305C88.8878 7.87305 91.4342 11.0692 91.4342 15.5147V16.2992C91.4342 20.7447 88.8878 23.9408 83.7073 23.9408C78.5268 23.9408 75.9805 20.7738 75.9805 16.2992ZM86.7512 15.1951C86.7512 13.1612 85.9024 11.5341 83.7073 11.5341C81.5122 11.5341 80.6634 13.1612 80.6634 15.1951V16.6479C80.6634 18.6818 81.5122 20.3089 83.7073 20.3089C85.9024 20.3089 86.7512 18.6818 86.7512 16.6479V15.1951Z" fill="#DCDCDC"/>
<path d="M93.0442 16.2992V15.5147C93.0442 11.0692 95.5905 7.87305 100.771 7.87305C105.952 7.87305 108.498 11.0692 108.498 15.5147V16.2992C108.498 20.7447 105.952 23.9408 100.771 23.9408C95.5905 23.9408 93.0442 20.7738 93.0442 16.2992ZM103.815 15.1951C103.815 13.1612 102.966 11.5341 100.771 11.5341C98.5759 11.5341 97.7271 13.1612 97.7271 15.1951V16.6479C97.7271 18.6818 98.5759 20.3089 100.771 20.3089C102.966 20.3089 103.815 18.6818 103.815 16.6479V15.1951Z" fill="#DCDCDC"/>
<path d="M114.966 15.5741L119.62 8.19395H124.595L119.737 15.8356L124.8 23.6516H119.795L114.966 16.0971V23.6516H110.283V0.465132L114.966 0.0292969" fill="#DCDCDC"/>
</g>
<defs>
<clipPath id="clip0_2_1659">
<rect width="124.8" height="24" fill="white"/>
</clipPath>
</defs>
</svg>
