<svg width="97" height="32" viewBox="0 0 97 32" fill="none" xmlns="http://www.w3.org/2000/svg">
<g clip-path="url(#clip0_2_1654)">
<path d="M1.28963 1.13301L9.29314 1.46181L14.2269 5.9555L39.0049 6.06507L38.8953 1.02344L55.5602 1.13301L55.4505 5.84589L60.6035 6.06507L60.7131 9.79155L65.0986 6.06507L75.5142 5.9555V1.35219L84.3948 1.13305L84.5044 5.84593L90.7538 5.9555L95.5778 10.3396L95.6874 25.903L5.56549 26.1222L0.851074 21.1902L1.28963 1.13301Z" fill="white"/>
<path d="M9.1119 29.5282L4.99614 27.0613L2.49807 24.5669L0 22.0725V0.00390625H10.4975L12.986 2.49016L15.4744 4.97641H26.7297C37.8125 4.97641 37.9858 4.97509 38.0307 4.89131C38.0605 4.8356 38.0763 3.97606 38.0763 2.40505V0.00390625H56.8275L56.8389 2.47916L56.8503 4.95441L59.3154 4.97641L61.7804 4.99841L61.7921 6.30755C61.7985 7.02759 61.8179 7.61668 61.8351 7.61668C61.8524 7.61668 62.462 7.02262 63.1897 6.29655L64.5129 4.97641H70.0542L72.5427 2.49016L75.0312 0.00390625H85.4846V2.40505C85.4846 3.97606 85.5004 4.8356 85.5302 4.89131C85.5745 4.97417 85.6548 4.97641 88.5786 4.97641H91.5815L94.0574 7.4518L96.5333 9.92723V26.4777L92.4066 29.2372L88.2798 31.9968L85.5195 31.996L82.7591 31.9952L82.7463 30.6786C82.7392 29.9545 82.7193 29.348 82.7022 29.3309C82.685 29.3137 81.8211 29.9061 80.7824 30.6474L78.894 31.9952H73.9076V30.675C73.9076 29.6448 73.8955 29.3549 73.8524 29.3549C73.8219 29.3549 73.2031 29.949 72.477 30.675L71.157 31.9952H62.3082L60.9671 30.654C60.2295 29.9163 59.6106 29.3282 59.5917 29.3471C59.5729 29.3659 59.4489 29.9248 59.3162 30.5892C59.1834 31.2536 59.0642 31.8417 59.0512 31.8961L59.0276 31.9951H51.3034L49.9834 30.675C49.2574 29.9489 48.6385 29.3549 48.6081 29.3549C48.5649 29.3549 48.5528 29.6448 48.5528 30.675V31.9951H44.6791C42.5486 31.9951 40.8055 31.9893 40.8055 31.9821C40.8055 31.9128 40.272 29.335 40.2539 29.3169C40.2407 29.3036 39.6214 29.9009 38.8777 30.644L37.5255 31.9952H23.1545L21.8333 31.4671C21.1067 31.1767 20.4925 30.9391 20.4685 30.9391C20.442 30.9391 20.4247 31.1469 20.4247 31.4671V31.9952H13.2277L9.1119 29.5281V29.5282ZM13.2277 21.7861V18.7718L10.7626 18.7498L8.29755 18.7278V13.2713L10.7626 13.2493L13.2277 13.2273V7.19864L10.7626 7.17664L8.29755 7.15463L8.27554 4.69038L8.25353 2.22613H2.22295L2.21186 11.5978L2.20072 20.9695L4.12624 22.8962L6.05175 24.823L9.63973 24.8117L13.2277 24.8004V21.7861ZM36.1513 22.8959L38.0766 20.9694L38.0654 14.084L38.0543 7.19864L35.0282 7.18733L32.002 7.17602L31.9909 12.9519L31.9797 18.7278H29.8228L29.8008 12.9632L29.7787 7.19864L26.7526 7.18733L23.7265 7.17602L23.7153 12.9519L23.7041 18.7278H21.5472L21.5252 12.9632L21.5032 7.19864L18.4769 7.18733L15.4506 7.17602V24.8224H34.226L36.1513 22.8959ZM46.3298 15.9995V7.19864L43.3035 7.18733L40.2772 7.17602V24.823L43.3035 24.8117L46.3298 24.8004V15.9995ZM59.5575 21.7865V18.7506L57.1034 18.7392L54.6494 18.7278V13.2713L57.1034 13.2599L59.5575 13.2485V7.17738L57.1034 7.16599L54.6494 7.15463L54.6274 4.69038L54.6054 2.22613H48.5748L48.5637 11.5988L48.5526 20.9715L50.4783 22.897L52.404 24.8224H59.5575V21.7865ZM75.0081 21.786V18.7497H71.4473C68.2409 18.7497 67.8838 18.7428 67.8598 18.6802C67.8249 18.5892 67.8249 13.4097 67.8598 13.3188C67.8838 13.2561 68.2409 13.2492 71.4473 13.2492H75.0081V7.17655H65.6112L63.7068 9.08031L61.8025 10.9841V21.0149L63.7068 22.9186L65.6112 24.8223H75.0081V21.786ZM83.2945 19.0468L83.3057 13.2712H88.2358L88.2578 19.0358L88.2798 24.8003H94.3104L94.3215 17.915L94.3327 11.0296L92.4074 9.10306L90.4821 7.17655H86.9323C84.0162 7.17655 83.3737 7.16599 83.3334 7.1175C83.2991 7.07604 83.2811 6.33752 83.273 4.64224L83.2617 2.22604H77.2311L77.2198 13.4692C77.2136 19.6529 77.2179 24.7371 77.2294 24.7673C77.2459 24.8106 77.8941 24.8223 80.2668 24.8223H83.2833L83.2945 19.0468ZM46.3298 3.59018V2.22604H40.2993L40.2876 3.54574C40.2812 4.2715 40.2855 4.89047 40.2973 4.92114C40.3144 4.96559 40.9296 4.97465 43.3243 4.96563L46.3298 4.95432V3.59018Z" fill="#DCDCDC"/>
</g>
<defs>
<clipPath id="clip0_2_1654">
<rect width="96.5333" height="32" fill="white"/>
</clipPath>
</defs>
</svg>
