<svg width="127" height="24" viewBox="0 0 127 24" fill="none" xmlns="http://www.w3.org/2000/svg">
<g clip-path="url(#clip0_2_1677)">
<path d="M7.79068 21.9966C3.48746 21.9966 0 18.4643 0 14.1067L0.0248587 5.05557C0.0248587 4.45653 0.259831 3.88202 0.678094 3.45843C1.09636 3.03484 1.66365 2.79688 2.25516 2.79688C2.84667 2.79688 3.41396 3.03484 3.83222 3.45843C4.25048 3.88202 4.48546 4.45653 4.48546 5.05557V8.44321H10.062C10.6536 8.44321 11.2209 8.6812 11.6392 9.10483C12.0575 9.52845 12.2925 10.103 12.2925 10.7021C12.2925 11.3012 12.0575 11.8758 11.6392 12.2994C11.2209 12.723 10.6536 12.961 10.062 12.961H4.48586V14.0991C4.48586 14.9954 4.8374 15.8549 5.46317 16.4886C6.08894 17.1224 6.93766 17.4784 7.82263 17.4784H11.1772C11.7687 17.4784 12.3361 17.7164 12.7544 18.14C13.1727 18.5636 13.4077 19.1382 13.4077 19.7373C13.4077 20.3364 13.1727 20.9109 12.7544 21.3346C12.3361 21.7582 11.7687 21.9962 11.1772 21.9962H7.79068V21.9966Z" fill="#DCDCDC"/>
<path d="M51.8413 21.9968C47.5393 21.9968 44.0767 18.4645 44.0767 14.1069V5.05537C44.0767 4.45638 44.3116 3.88192 44.7298 3.45837C45.1481 3.03482 45.7153 2.79688 46.3068 2.79688C46.8982 2.79688 47.4655 3.03482 47.8837 3.45837C48.3019 3.88192 48.5369 4.45638 48.5369 5.05537V8.44301H51.8815C52.1769 8.43904 52.4702 8.49452 52.7442 8.60626C53.0183 8.71799 53.2677 8.88375 53.478 9.0939C53.6883 9.30405 53.8553 9.55442 53.9692 9.83046C54.0832 10.1065 54.1419 10.4027 54.1419 10.7019C54.1419 11.0011 54.0832 11.2973 53.9692 11.5734C53.8553 11.8494 53.6883 12.0998 53.478 12.3099C53.2677 12.5201 53.0183 12.6858 52.7442 12.7976C52.4702 12.9093 52.1769 12.9648 51.8815 12.9608H48.5369V14.0989C48.5368 14.5427 48.6231 14.982 48.7907 15.392C48.9583 15.802 49.204 16.1745 49.5138 16.4883C49.8236 16.8021 50.1913 17.051 50.5961 17.2208C51.0009 17.3907 51.4347 17.4781 51.8729 17.4782H52.9979C54.229 17.4782 55.2274 18.4897 55.2274 19.7373C55.2274 20.9849 54.229 21.996 52.9979 21.996L51.8413 21.9968Z" fill="#DCDCDC"/>
<path d="M63.5501 21.9959C59.2473 21.9959 55.7847 18.4637 55.7847 14.1061V5.0545C55.7957 4.46282 56.0355 3.89912 56.4525 3.48461C56.8696 3.07011 57.4306 2.83789 58.015 2.83789C58.5993 2.83789 59.1603 3.07011 59.5774 3.48461C59.9945 3.89912 60.2343 4.46282 60.2453 5.0545V8.44215H63.5899C63.8854 8.43817 64.1786 8.49366 64.4527 8.60539C64.7267 8.71713 64.9761 8.88288 65.1864 9.09303C65.3967 9.30319 65.5637 9.55355 65.6777 9.82959C65.7916 10.1056 65.8503 10.4018 65.8503 10.701C65.8503 11.0002 65.7916 11.2965 65.6777 11.5725C65.5637 11.8485 65.3967 12.0989 65.1864 12.309C64.9761 12.5192 64.7267 12.685 64.4527 12.7967C64.1786 12.9084 63.8854 12.9639 63.5899 12.9599H60.2453V14.0981C60.2452 14.5418 60.3315 14.9812 60.4991 15.3912C60.6668 15.8012 60.9125 16.1737 61.2223 16.4875C61.5322 16.8013 61.9 17.0503 62.3048 17.2201C62.7096 17.3899 63.1435 17.4773 63.5817 17.4773H64.7071C65.2935 17.4852 65.8533 17.7267 66.2652 18.1495C66.6771 18.5722 66.9081 19.1423 66.9081 19.7362C66.9081 20.3302 66.6771 20.9002 66.2652 21.323C65.8533 21.7458 65.2935 21.9872 64.7071 21.9951L63.5501 21.9959Z" fill="#DCDCDC"/>
<path d="M82.5637 15.2198C82.5637 11.4771 85.5246 8.44336 89.2199 8.44336H92.565C93.1514 8.45126 93.7112 8.69272 94.1231 9.11549C94.5351 9.53826 94.766 10.1083 94.766 10.7023C94.766 11.2962 94.5351 11.8663 94.1231 12.289C93.7112 12.7118 93.1514 12.9533 92.565 12.9611H89.2199C88.9269 12.961 88.6368 13.0194 88.3661 13.1328C88.0954 13.2463 87.8494 13.4127 87.6422 13.6224C87.435 13.8321 87.2706 14.0812 87.1584 14.3553C87.0463 14.6294 86.9885 14.9231 86.9884 15.2198L87.0251 19.7376C87.0251 20.0343 86.9673 20.3281 86.8551 20.6022C86.743 20.8763 86.5786 21.1253 86.3714 21.3351C86.1641 21.5448 85.9181 21.7112 85.6474 21.8246C85.3767 21.9381 85.0866 21.9964 84.7936 21.9963C84.5008 21.9963 84.2109 21.9378 83.9404 21.8243C83.6699 21.7107 83.4241 21.5443 83.2171 21.3346C83.0101 21.1248 82.8459 20.8759 82.734 20.6018C82.622 20.3278 82.5644 20.0342 82.5645 19.7376L82.5637 15.2198Z" fill="#DCDCDC"/>
<path d="M34.0394 8.4437C33.7465 8.44375 33.4565 8.50223 33.186 8.61579C32.9154 8.72935 32.6695 8.89576 32.4625 9.10554C32.2554 9.31532 32.0912 9.56434 31.9791 9.8384C31.8671 10.1125 31.8095 10.4062 31.8095 10.7028V15.2206C31.8095 15.8197 31.5745 16.3942 31.1562 16.8179C30.7379 17.2415 30.1706 17.4795 29.579 17.4795C28.9875 17.4795 28.4201 17.2415 28.0018 16.8179C27.5835 16.3942 27.3485 15.8197 27.3485 15.2206V10.7028C27.3524 10.4037 27.2977 10.1068 27.1874 9.82925C27.077 9.55175 26.9134 9.2992 26.7059 9.08627C26.4985 8.87335 26.2513 8.70428 25.9788 8.58888C25.7062 8.47349 25.4138 8.41406 25.1184 8.41406C24.823 8.41406 24.5306 8.47349 24.2581 8.58888C23.9855 8.70428 23.7384 8.87335 23.5309 9.08627C23.3234 9.2992 23.1598 9.55175 23.0495 9.82925C22.9392 10.1068 22.8844 10.4037 22.8883 10.7028V15.2206C22.8883 15.8196 22.6533 16.3941 22.2351 16.8177C21.8168 17.2413 21.2495 17.4793 20.658 17.4793C20.0665 17.4793 19.4992 17.2413 19.0809 16.8177C18.6627 16.3941 18.4277 15.8196 18.4277 15.2206V10.7028C18.4316 10.4037 18.3768 10.1068 18.2665 9.82925C18.1562 9.55175 17.9926 9.2992 17.7851 9.08627C17.5776 8.87335 17.3305 8.70428 17.0579 8.58888C16.7854 8.47349 16.493 8.41406 16.1976 8.41406C15.9022 8.41406 15.6098 8.47349 15.3373 8.58888C15.0647 8.70428 14.8176 8.87335 14.6101 9.08627C14.4026 9.2992 14.239 9.55175 14.1286 9.82925C14.0183 10.1068 13.9636 10.4037 13.9675 10.7028V15.2206C13.9675 18.9634 16.9631 21.9971 20.6588 21.9971C22.3755 21.9971 23.9356 21.3371 25.1202 20.2613C26.3044 21.3367 27.8649 21.9971 29.5812 21.9971C33.2769 21.9971 36.2721 18.9634 36.2721 15.2206V10.7028C36.2713 10.1036 36.0357 9.52914 35.6171 9.1056C35.1985 8.68207 34.6311 8.44402 34.0394 8.4437Z" fill="#DCDCDC"/>
<path d="M40.1728 8.44336C39.8799 8.44336 39.5898 8.5018 39.3192 8.61534C39.0486 8.72888 38.8028 8.89529 38.5957 9.10508C38.3886 9.31487 38.2244 9.56392 38.1124 9.838C38.0004 10.1121 37.9428 10.4058 37.9429 10.7025V19.7376C37.9429 20.9852 38.9405 21.9963 40.1728 21.9963C41.4051 21.9963 42.4031 20.9852 42.4031 19.7376V10.7025C42.4032 10.4058 42.3456 10.112 42.2335 9.8379C42.1215 9.5638 41.9572 9.31473 41.7501 9.10494C41.543 8.89515 41.2971 8.72874 41.0264 8.61522C40.7558 8.50171 40.4657 8.44331 40.1728 8.44336Z" fill="#DCDCDC"/>
<path d="M40.1732 7.31231C41.4049 7.31231 42.4035 6.30106 42.4035 5.05362C42.4035 3.80617 41.4049 2.79492 40.1732 2.79492C38.9414 2.79492 37.9429 3.80617 37.9429 5.05362C37.9429 6.30106 38.9414 7.31231 40.1732 7.31231Z" fill="#DCDCDC"/>
<path d="M108.659 8.7275C109.753 5.26794 111.091 3.02603 112.631 1.40092C113.779 0.188078 114.371 -0.197026 113.696 1.13846C113.994 0.896367 114.423 0.57518 114.756 0.403401C116.618 -0.486254 116.486 0.259986 115.203 1.05936C118.706 -0.20941 118.584 1.40651 114.881 2.21108C117.908 2.269 121.129 4.22049 122.055 8.37115C122.183 8.94561 122.03 8.89128 122.611 8.99515C123.865 9.22006 125.044 9.20648 126.194 8.83656C126.07 9.69545 124.95 10.2535 123.203 10.6219C122.555 10.7585 122.422 10.7225 123.199 10.8995C124.155 11.1172 125.223 11.1735 126.353 11.12C125.474 12.1459 124.069 12.6708 122.334 12.6924C121.249 16.7076 118.767 19.5823 115.629 21.3872C108.256 25.6246 97.5246 25.0098 92.1433 17.3085C95.6753 20.1149 100.906 20.7333 104.791 16.8219C102.246 16.8219 101.586 14.892 103.604 13.8497C101.693 13.8297 100.48 13.2177 99.7667 12.1091C99.4957 11.6885 99.4934 11.6561 99.9348 11.3333C100.42 10.9778 101.08 10.82 101.765 10.7673C99.7869 10.1936 98.5786 9.14736 98.1589 7.74396C98.0204 7.27936 97.9988 7.30293 98.4646 7.18348C98.9214 7.06643 99.5084 7.00411 100.034 6.97735C98.4808 6.02337 97.5526 4.85448 97.3163 3.56134C97.0927 2.34051 97.3238 2.65411 98.2252 3.00366C102.257 4.56445 106.279 6.24229 108.659 8.7275Z" fill="#DCDCDC"/>
<path d="M80.8771 14.0901C80.8771 14.8795 80.5501 16.342 79.3868 16.342L72.0238 16.3416C72.1463 16.828 72.4252 17.2593 72.8165 17.5674C73.2079 17.8754 73.6894 18.0428 74.1851 18.043H78.938C79.1943 18.043 79.4481 18.0941 79.6849 18.1934C79.9218 18.2927 80.137 18.4383 80.3182 18.6218C80.4995 18.8054 80.6432 19.0233 80.7413 19.2632C80.8394 19.503 80.8898 19.7601 80.8898 20.0197C80.8898 20.2793 80.8394 20.5363 80.7413 20.7762C80.6432 21.016 80.4995 21.2339 80.3182 21.4175C80.137 21.6011 79.9218 21.7466 79.6849 21.846C79.4481 21.9453 79.1943 21.9964 78.938 21.9963H74.1851C70.4901 21.9963 67.4941 18.9395 67.4941 14.655C67.4941 10.8958 70.4913 8.44336 74.1878 8.44336C77.8832 8.44336 80.8799 10.9717 80.8799 14.0905L80.8771 14.0901ZM76.4177 13.5252C76.4177 12.4858 75.4205 11.6428 74.1882 11.6428C72.9559 11.6428 71.9575 12.4858 71.9575 13.5252H76.4177Z" fill="#DCDCDC"/>
</g>
<defs>
<clipPath id="clip0_2_1677">
<rect width="126.353" height="24" fill="white"/>
</clipPath>
</defs>
</svg>
