<svg width="108" height="24" viewBox="0 0 108 24" fill="none" xmlns="http://www.w3.org/2000/svg">
<g clip-path="url(#clip0_2_1670)">
<path d="M17.9814 23.9781L10.9155 23.8478C8.62772 23.8025 6.33427 23.8932 4.09142 23.423C0.67935 22.7206 0.437638 19.2767 0.184684 16.3878C-0.16383 12.3265 -0.0289213 8.19148 0.628759 4.1641C0.999758 1.90401 2.46127 0.555887 4.72099 0.408613C12.349 -0.123839 20.0275 -0.0615311 27.6386 0.187702C28.4424 0.21036 29.2519 0.334976 30.0445 0.476586C33.9568 1.16764 34.0524 5.0704 34.3053 8.35575C34.5583 11.6751 34.4515 15.0114 33.9681 18.3081C33.5802 21.0383 32.8382 23.3267 29.7072 23.5476C25.7836 23.8365 21.95 24.0688 18.0151 23.9951C18.0151 23.9781 17.9926 23.9781 17.9814 23.9781ZM13.8273 17.0676C16.7841 15.3569 19.6846 13.6746 22.6245 11.9753C19.6621 10.2646 16.7672 8.58232 13.8273 6.88301V17.0676Z" fill="#DCDCDC"/>
<path d="M91.1647 20.8726C91.0297 21.4277 90.9117 21.8639 90.7937 22.3284H88.028V0.832031H91.2546V8.76217C91.4232 8.54692 91.5075 8.45629 91.5806 8.36C92.1315 7.59531 92.8454 7.09684 93.7673 6.90425C95.2344 6.61537 96.4879 7.26677 96.932 8.68853C97.2187 9.57218 97.4042 10.5181 97.4267 11.4414C97.4716 13.8148 97.4379 16.1825 97.3536 18.5559C97.3199 19.2809 97.1006 20.023 96.8252 20.7027C95.9202 22.9458 92.9634 23.2856 91.4963 21.3428C91.4064 21.2238 91.322 21.0935 91.1647 20.8726ZM91.322 14.959V18.8901C91.322 19.5302 91.6593 19.921 92.2945 20.0683C92.9185 20.2156 93.4244 19.972 93.6773 19.3886C93.7841 19.145 93.8909 18.8901 93.8966 18.6352C93.9584 16.2335 94.0146 13.8318 94.0315 11.4244C94.0315 10.9769 93.9247 10.5125 93.7898 10.0763C93.5368 9.28896 92.8398 9.05672 92.154 9.51553C91.6368 9.86672 91.322 10.3652 91.322 11.0279V14.959ZM82.553 7.21013H85.9313V22.3397H83.295C83.1994 21.7676 83.1039 21.1785 82.9914 20.4874C82.8116 20.7537 82.7048 20.9236 82.5923 21.0935C81.7154 22.368 80.4731 22.8042 79.006 22.5719C77.7525 22.368 76.9992 21.3937 76.8306 19.7964C76.78 19.3206 76.7575 18.8391 76.7575 18.3633C76.7463 14.8231 76.7575 11.2715 76.7575 7.73125V7.1988H80.1752V7.81622C80.1752 11.2375 80.164 14.6531 80.1865 18.0744C80.1865 18.5616 80.237 19.0657 80.3214 19.5528C80.4169 20.0513 80.7767 20.2325 81.2601 20.1986C82.0415 20.1363 82.5811 19.5528 82.5811 18.7711V7.87853C82.553 7.65761 82.553 7.4537 82.553 7.21013ZM59.2925 7.1988H62.6877V7.83887C62.6877 11.2432 62.6764 14.6418 62.6989 18.0348C62.6989 18.5219 62.7439 19.026 62.8451 19.5018C62.9744 20.0626 63.3004 20.2439 63.8569 20.1702C64.627 20.0626 65.0935 19.5245 65.0992 18.7371V7.90118V7.22146H68.4775V22.3397H65.8524C65.7568 21.7789 65.6613 21.2012 65.5376 20.4704C65.369 20.7253 65.2734 20.8726 65.1779 21.0256C64.301 22.3227 63.0699 22.7985 61.5691 22.5663C60.3661 22.385 59.6297 21.49 59.4049 20.023C59.3431 19.5641 59.2981 19.111 59.2981 18.6522C59.2869 14.976 59.2868 11.2828 59.2868 7.60663L59.2925 7.1988ZM57.5499 15.2762C57.5387 15.786 57.5049 16.2958 57.4768 16.8056C57.3475 18.335 57.2857 20.5044 56.0603 21.6203C55.2789 22.3227 54.2896 22.5776 53.2665 22.6116C52.8112 22.6229 52.3503 22.6229 51.895 22.5606C49.7421 22.2321 48.7415 21.2748 48.3817 18.8901C47.9714 16.1372 47.9377 13.339 48.4267 10.5861C48.9326 7.73692 50.6752 6.72865 53.3846 6.91558C55.9141 7.09684 57.044 8.76783 57.3419 11.1469C57.5049 12.512 57.5836 13.8941 57.5499 15.2762ZM54.1097 14.7551C54.1097 13.7865 54.1322 12.8122 54.0985 11.8436C54.076 11.2828 54.0029 10.7164 53.8849 10.1613C53.75 9.5212 53.3452 9.21532 52.8393 9.22665C52.3447 9.23798 51.9962 9.54385 51.8163 10.1386C51.7544 10.3595 51.687 10.5861 51.687 10.807C51.687 12.3251 51.6758 13.8488 51.6645 15.3668C51.6533 16.7829 51.4734 18.267 51.9175 19.6208C52.0524 20.0343 52.4009 20.2609 52.8562 20.2609C53.3003 20.2609 53.5926 20.04 53.7556 19.6434C53.8849 19.3376 53.9973 19.0034 53.9973 18.6748C54.0367 17.372 54.1097 16.0636 54.1097 14.7551ZM43.4238 11.9059C43.7218 10.4388 44.0028 9.00574 44.312 7.56698C44.6998 5.73739 45.1327 3.90779 45.5149 2.07253C45.6105 1.62504 45.7904 1.51742 46.2119 1.52875C47.117 1.56274 48.0388 1.54008 49.0057 1.54008C48.6909 2.70694 48.3817 3.81716 48.0782 4.91039C47.117 8.343 46.1557 11.787 45.2058 15.2309C45.1327 15.4971 45.099 15.786 45.099 16.0692C45.0877 17.9498 45.099 19.8247 45.099 21.7053V22.317H41.7993C41.7881 22.1471 41.7656 21.9772 41.7656 21.8072C41.7656 20.7423 41.6813 19.6718 41.7768 18.6182C42.0185 16.0862 41.2203 13.7582 40.5739 11.4018C39.7195 8.28636 38.8538 5.15962 37.9994 2.04421C37.9544 1.89694 37.9375 1.73833 37.8926 1.55707H41.2597C41.9679 4.99535 42.6818 8.43363 43.4238 11.9059ZM107.983 15.854H102.295C102.356 17.0038 102.379 18.0971 102.497 19.179C102.581 19.9323 102.992 20.2552 103.638 20.2609C104.313 20.2722 104.706 19.9323 104.864 19.1846C104.914 18.9411 104.948 18.6975 104.97 18.4483C104.993 18.2274 105.004 17.9895 105.021 17.6722C105.982 17.7232 106.921 17.7799 107.848 17.8195C108.388 19.4339 107.416 21.507 105.78 22.1471C104.493 22.6569 103.172 22.6569 101.856 22.2661C100.884 21.9772 100.159 21.3541 99.8325 20.3968C99.529 19.5018 99.2423 18.5672 99.1805 17.6326C99.0118 15.3272 98.95 12.9991 99.2985 10.6881C99.3604 10.3029 99.4672 9.9347 99.5852 9.56085C100.057 8.02013 101.086 7.07418 102.677 6.91558C103.543 6.83061 104.436 6.8646 105.291 7.01187C106.674 7.25544 107.41 8.25804 107.73 9.57218C107.876 10.1896 107.983 10.824 108.006 11.4528C108.011 12.8972 107.983 14.3303 107.983 15.854ZM104.751 13.8658C104.751 12.7272 104.762 11.6567 104.74 10.5804C104.74 10.3255 104.644 10.0593 104.549 9.81574C104.358 9.33994 103.958 9.20966 103.481 9.20966C103.003 9.20966 102.699 9.45322 102.581 9.88938C102.222 11.1979 102.34 12.5346 102.351 13.8771C103.211 13.8658 103.992 13.8658 104.751 13.8658Z" fill="#DCDCDC"/>
<path d="M71.086 4.31617H67.7415V1.58594H77.7246V4.29918H74.4025V22.3176H71.0917L71.086 4.31617Z" fill="#DCDCDC"/>
</g>
<defs>
<clipPath id="clip0_2_1670">
<rect width="108" height="24" fill="white"/>
</clipPath>
</defs>
</svg>
