<svg width="220" height="28" viewBox="0 0 220 28" fill="none" xmlns="http://www.w3.org/2000/svg">
<path d="M0.72 27H6.68L9.2 15.12C9.48 13.76 10.16 10.56 13.88 10.56C17.16 10.56 16.6 13.44 16.28 15L13.72 27H19.68L21.84 16.88C22.48 13.88 23.24 10.56 26.8 10.56C29.88 10.56 29.72 12.96 29.24 15.12L26.72 27H32.68L35.12 15.6C35.48 13.84 36.08 11.4 35.36 9.64C35.08 8.84 33.96 6.4 29.88 6.4C27.8 6.4 25 6.92 22.6 10.16C22.44 9.2 21.72 6.36 17.08 6.36C13.04 6.36 11 8.52 10.2 9.4L10.52 6.8H4.8C4.68 8.08 4.48 9.32 4.2 10.6L0.72 27ZM56.6534 27C56.6534 25.32 56.8934 23.6 57.2534 21.88L58.9334 13.76C59.1334 12.84 59.6134 10.44 58.6134 8.8C57.0934 6.48 53.6534 6.2 51.9734 6.2C50.0534 6.2 47.6134 6.52 45.4934 7.84C43.0534 9.36 42.4534 11.52 42.2134 12.6H48.0134C48.0934 12.12 48.2134 11.48 48.8134 10.8C49.4934 10.04 50.4534 9.68 51.2934 9.68C51.8534 9.68 53.3734 9.88 53.5734 11.36C53.6534 12.08 53.5734 12.72 53.2934 14.04C51.3334 14.04 47.7734 14.04 45.0534 15.16C40.9734 16.88 39.7734 19.84 39.4534 21.44C39.0934 23.04 39.2934 24.68 40.2534 25.88C40.8934 26.64 42.0134 27.48 44.9334 27.48C46.0534 27.48 48.7334 27.48 51.6934 24.24C51.5334 24.84 51.3734 25.76 51.2934 27H56.6534ZM52.5734 17.48C52.0934 19.64 51.6934 21.2 50.3734 22.48C49.6934 23.12 48.6934 23.64 47.6134 23.64C45.6534 23.64 45.0534 22.12 45.3334 20.76C45.8534 18.36 48.8134 17.16 52.5734 17.48ZM64.52 6.8L69.04 16.16L59.96 27H66.16L71.84 19.6L74.36 27H81.36L76.8 16.64L85.44 6.8H79.28L73.92 13.4L71.52 6.8H64.52Z" fill="#FFBC10"/>
<path d="M85.0266 21.16C84.8666 22.12 84.6266 23.72 85.6666 25.12C87.1066 27.04 89.4666 27.6 92.0666 27.6C98.3466 27.6 102.067 24.12 102.827 20.64C103.387 17.88 102.067 16 98.6266 15L95.1866 14C93.5466 13.52 92.5866 13.24 92.8666 11.88C93.1466 10.64 94.5066 9.88 96.1066 9.88C97.0266 9.88 98.7866 10.04 98.4666 12.28H103.867C104.587 8.24 101.627 6.32 97.4666 6.32C92.2266 6.32 88.1066 8.72 87.2666 12.64C86.3866 16.76 89.6666 17.76 91.2266 18.24L94.6666 19.24C96.8666 19.88 97.1866 20.6 96.9866 21.52C96.7466 22.72 95.4666 23.92 93.3466 23.92C90.8666 23.92 90.3866 22.44 90.5866 21.16H85.0266ZM118.787 22.84C118.067 22.92 117.627 22.96 116.747 22.96C114.107 22.96 114.387 21.8 114.707 19.96L116.667 10.84H121.467L122.307 6.92H117.507L118.787 0.799999L112.467 2.96L111.627 6.92H107.747L106.907 10.84H110.787L108.427 21.92C108.067 23.6 107.267 27.36 113.227 27.36C114.187 27.36 115.947 27.24 117.947 26.72L118.787 22.84ZM122.373 27H128.293L130.413 17.04C130.933 14.52 131.973 11.44 137.853 12L138.973 6.68C134.213 6.44 132.373 8.88 131.253 10.6L131.973 6.72H126.413C126.293 7.88 125.813 10.8 125.613 11.76L122.373 27ZM157.669 18.4C158.109 16.72 158.789 13.76 158.029 11C156.989 7.24 153.789 6.12 150.909 6.12C148.709 6.12 146.669 6.76 144.869 7.8C140.949 10.16 139.349 14.08 138.629 17.36C137.949 20.6 138.149 23.32 139.549 25.24C141.229 27.44 144.429 27.76 146.149 27.76C149.109 27.76 151.909 26.96 153.749 25.4C155.749 23.68 156.309 21.96 156.589 21H151.189C150.149 23.24 148.549 23.8 147.069 23.8C142.949 23.8 143.829 19.72 144.109 18.4H157.669ZM145.069 14.68C145.709 12.32 147.229 10.16 149.829 10.16C153.269 10.16 152.589 13.76 152.389 14.68H145.069ZM178.016 27C178.016 25.32 178.256 23.6 178.616 21.88L180.296 13.76C180.496 12.84 180.976 10.44 179.976 8.8C178.456 6.48 175.016 6.2 173.336 6.2C171.416 6.2 168.976 6.52 166.856 7.84C164.416 9.36 163.816 11.52 163.576 12.6H169.376C169.456 12.12 169.576 11.48 170.176 10.8C170.856 10.04 171.816 9.68 172.656 9.68C173.216 9.68 174.736 9.88 174.936 11.36C175.016 12.08 174.936 12.72 174.656 14.04C172.696 14.04 169.136 14.04 166.416 15.16C162.336 16.88 161.136 19.84 160.816 21.44C160.456 23.04 160.656 24.68 161.616 25.88C162.256 26.64 163.376 27.48 166.296 27.48C167.416 27.48 170.096 27.48 173.056 24.24C172.896 24.84 172.736 25.76 172.656 27H178.016ZM173.936 17.48C173.456 19.64 173.056 21.2 171.736 22.48C171.056 23.12 170.056 23.64 168.976 23.64C167.016 23.64 166.416 22.12 166.696 20.76C167.216 18.36 170.176 17.16 173.936 17.48ZM183.682 27H189.642L192.162 15.12C192.442 13.76 193.122 10.56 196.842 10.56C200.122 10.56 199.562 13.44 199.242 15L196.682 27H202.642L204.802 16.88C205.442 13.88 206.202 10.56 209.762 10.56C212.842 10.56 212.682 12.96 212.202 15.12L209.682 27H215.642L218.082 15.6C218.442 13.84 219.042 11.4 218.322 9.64C218.042 8.84 216.922 6.4 212.842 6.4C210.762 6.4 207.962 6.92 205.562 10.16C205.402 9.2 204.682 6.36 200.042 6.36C196.002 6.36 193.962 8.52 193.162 9.4L193.482 6.8H187.762C187.642 8.08 187.442 9.32 187.162 10.6L183.682 27Z" fill="white"/>
</svg>
