<svg width="175" height="22" viewBox="0 0 175 22" fill="none" xmlns="http://www.w3.org/2000/svg">
<path d="M0.176 21H4.944L6.96 11.496C7.184 10.408 7.728 7.848 10.704 7.848C13.328 7.848 12.88 10.152 12.624 11.4L10.576 21H15.344L17.072 12.904C17.584 10.504 18.192 7.848 21.04 7.848C23.504 7.848 23.376 9.768 22.992 11.496L20.976 21H25.744L27.696 11.88C27.984 10.472 28.464 8.52 27.888 7.112C27.664 6.472 26.768 4.52 23.504 4.52C21.84 4.52 19.6 4.936 17.68 7.528C17.552 6.76 16.976 4.488 13.264 4.488C10.032 4.488 8.4 6.216 7.76 6.92L8.016 4.84H3.44C3.344 5.864 3.184 6.856 2.96 7.88L0.176 21ZM44.9228 21C44.9228 19.656 45.1147 18.28 45.4028 16.904L46.7467 10.408C46.9067 9.672 47.2908 7.752 46.4907 6.44C45.2747 4.584 42.5227 4.36 41.1788 4.36C39.6427 4.36 37.6908 4.616 35.9947 5.672C34.0427 6.888 33.5627 8.616 33.3707 9.48H38.0107C38.0747 9.096 38.1707 8.584 38.6508 8.04C39.1947 7.432 39.9627 7.144 40.6348 7.144C41.0828 7.144 42.2987 7.304 42.4587 8.488C42.5227 9.064 42.4587 9.576 42.2347 10.632C40.6667 10.632 37.8187 10.632 35.6427 11.528C32.3787 12.904 31.4187 15.272 31.1627 16.552C30.8747 17.832 31.0347 19.144 31.8027 20.104C32.3147 20.712 33.2107 21.384 35.5467 21.384C36.4427 21.384 38.5868 21.384 40.9548 18.792C40.8267 19.272 40.6987 20.008 40.6348 21H44.9228ZM41.6587 13.384C41.2747 15.112 40.9548 16.36 39.8988 17.384C39.3547 17.896 38.5547 18.312 37.6908 18.312C36.1227 18.312 35.6427 17.096 35.8667 16.008C36.2827 14.088 38.6508 13.128 41.6587 13.384ZM51.216 4.84L54.832 12.328L47.568 21H52.528L57.072 15.08L59.088 21H64.688L61.04 12.712L67.952 4.84H63.024L58.736 10.12L56.816 4.84H51.216Z" fill="#FFBC10"/>
<path d="M67.6212 16.328C67.4932 17.096 67.3012 18.376 68.1332 19.496C69.2852 21.032 71.1732 21.48 73.2532 21.48C78.2772 21.48 81.2532 18.696 81.8612 15.912C82.3092 13.704 81.2532 12.2 78.5012 11.4L75.7492 10.6C74.4372 10.216 73.6692 9.992 73.8932 8.904C74.1172 7.912 75.2052 7.304 76.4852 7.304C77.2212 7.304 78.6292 7.432 78.3732 9.224H82.6932C83.2692 5.992 80.9012 4.456 77.5732 4.456C73.3812 4.456 70.0852 6.376 69.4132 9.512C68.7092 12.808 71.3332 13.608 72.5812 13.992L75.3332 14.792C77.0932 15.304 77.3492 15.88 77.1892 16.616C76.9972 17.576 75.9732 18.536 74.2772 18.536C72.2932 18.536 71.9092 17.352 72.0692 16.328H67.6212ZM94.6292 17.672C94.0532 17.736 93.7012 17.768 92.9972 17.768C90.8852 17.768 91.1092 16.84 91.3652 15.368L92.9332 8.072H96.7732L97.4452 4.936H93.6052L94.6292 0.039999L89.5732 1.768L88.9012 4.936H85.7972L85.1252 8.072H88.2292L86.3412 16.936C86.0532 18.28 85.4132 21.288 90.1812 21.288C90.9492 21.288 92.3572 21.192 93.9572 20.776L94.6292 17.672ZM97.4987 21H102.235L103.931 13.032C104.347 11.016 105.179 8.552 109.883 9L110.779 4.744C106.971 4.552 105.499 6.504 104.603 7.88L105.179 4.776H100.731C100.635 5.704 100.251 8.04 100.091 8.808L97.4987 21ZM125.735 14.12C126.087 12.776 126.631 10.408 126.023 8.2C125.191 5.192 122.631 4.296 120.327 4.296C118.567 4.296 116.935 4.808 115.495 5.64C112.359 7.528 111.079 10.664 110.503 13.288C109.959 15.88 110.119 18.056 111.239 19.592C112.583 21.352 115.143 21.608 116.519 21.608C118.887 21.608 121.127 20.968 122.599 19.72C124.199 18.344 124.647 16.968 124.871 16.2H120.551C119.719 17.992 118.439 18.44 117.255 18.44C113.959 18.44 114.663 15.176 114.887 14.12H125.735ZM115.655 11.144C116.167 9.256 117.383 7.528 119.463 7.528C122.215 7.528 121.671 10.408 121.511 11.144H115.655ZM142.013 21C142.013 19.656 142.205 18.28 142.493 16.904L143.837 10.408C143.997 9.672 144.381 7.752 143.581 6.44C142.365 4.584 139.613 4.36 138.269 4.36C136.733 4.36 134.781 4.616 133.085 5.672C131.133 6.888 130.653 8.616 130.461 9.48H135.101C135.165 9.096 135.261 8.584 135.741 8.04C136.285 7.432 137.053 7.144 137.725 7.144C138.173 7.144 139.389 7.304 139.549 8.488C139.613 9.064 139.549 9.576 139.325 10.632C137.757 10.632 134.909 10.632 132.733 11.528C129.469 12.904 128.509 15.272 128.253 16.552C127.965 17.832 128.125 19.144 128.893 20.104C129.405 20.712 130.301 21.384 132.637 21.384C133.533 21.384 135.677 21.384 138.045 18.792C137.917 19.272 137.789 20.008 137.725 21H142.013ZM138.749 13.384C138.365 15.112 138.045 16.36 136.989 17.384C136.445 17.896 135.645 18.312 134.781 18.312C133.213 18.312 132.733 17.096 132.957 16.008C133.373 14.088 135.741 13.128 138.749 13.384ZM146.546 21H151.314L153.33 11.496C153.554 10.408 154.098 7.848 157.074 7.848C159.698 7.848 159.25 10.152 158.994 11.4L156.946 21H161.714L163.442 12.904C163.954 10.504 164.562 7.848 167.41 7.848C169.874 7.848 169.746 9.768 169.362 11.496L167.346 21H172.114L174.066 11.88C174.354 10.472 174.834 8.52 174.258 7.112C174.034 6.472 173.138 4.52 169.874 4.52C168.21 4.52 165.97 4.936 164.05 7.528C163.922 6.76 163.346 4.488 159.634 4.488C156.402 4.488 154.77 6.216 154.13 6.92L154.386 4.84H149.81C149.714 5.864 149.554 6.856 149.33 7.88L146.546 21Z" fill="#4209A0"/>
</svg>
