<svg width="12" height="11" viewBox="0 0 12 11" fill="none" xmlns="http://www.w3.org/2000/svg">
<path fill-rule="evenodd" clip-rule="evenodd" d="M0 5.5C0 5.31059 0.079009 5.12895 0.219646 4.99502C0.360282 4.86108 0.551026 4.78584 0.749916 4.78584H9.43845L6.21831 1.72068C6.07749 1.58658 5.99838 1.4047 5.99838 1.21506C5.99838 1.02541 6.07749 0.843536 6.21831 0.709436C6.35912 0.575337 6.55011 0.5 6.74925 0.5C6.94839 0.5 7.13937 0.575337 7.28019 0.709436L11.7797 4.99438C11.8495 5.06072 11.9049 5.13952 11.9427 5.22629C11.9805 5.31305 12 5.40606 12 5.5C12 5.59394 11.9805 5.68695 11.9427 5.77371C11.9049 5.86048 11.8495 5.93928 11.7797 6.00562L7.28019 10.2906C7.13937 10.4247 6.94839 10.5 6.74925 10.5C6.55011 10.5 6.35912 10.4247 6.21831 10.2906C6.07749 10.1565 5.99838 9.97459 5.99838 9.78494C5.99838 9.5953 6.07749 9.41342 6.21831 9.27932L9.43845 6.21416H0.749916C0.551026 6.21416 0.360282 6.13892 0.219646 6.00499C0.079009 5.87106 0 5.68941 0 5.5Z" fill="#4209A0"/>
</svg>
