<svg width="79" height="56" viewBox="0 0 79 56" fill="none" xmlns="http://www.w3.org/2000/svg">
<path d="M21.9021 21.2104C21.9021 24.4275 22.9917 27.0461 25.171 29.0661C29.1664 32.6573 31.1641 36.6974 31.1641 41.1864C31.1641 45.3013 29.7476 48.8176 26.9145 51.7355C24.154 54.5785 21.0303 56 17.5434 56C14.0566 56 11.2234 55.3267 9.04414 53.98C6.93747 52.6333 5.19402 50.9125 3.81379 48.8176C1.27126 44.7027 0 39.6152 0 33.5551C0 21.9586 3.19632 12.7188 9.58897 5.83567C13.5117 1.94522 16.7444 0 19.2869 0C21.8294 0 23.7908 0.785571 25.171 2.35671C26.5513 3.92786 27.2414 5.57381 27.2414 7.29459C27.2414 9.01536 26.9508 10.3995 26.3697 11.4469C25.8611 12.4943 25.2437 13.5043 24.5172 14.477C22.7738 17.0207 21.9021 19.2652 21.9021 21.2104ZM69.7379 21.2104C69.7379 24.4275 70.8276 27.0461 73.0069 29.0661C77.0023 32.6573 79 36.6974 79 41.1864C79 45.3013 77.5834 48.8176 74.7503 51.7355C71.9899 54.5785 68.8662 56 65.3793 56C61.8924 56 59.0593 55.3267 56.88 53.98C54.7733 52.6333 53.0662 50.9125 51.7586 48.8176C49.1434 44.7027 47.8359 39.6152 47.8359 33.5551C47.8359 21.9586 51.0322 12.7188 57.4248 5.83567C61.3476 1.94522 64.5802 0 67.1228 0C69.6653 0 71.6267 0.785571 73.0069 2.35671C74.3871 3.92786 75.0772 5.57381 75.0772 7.29459C75.0772 9.01536 74.7867 10.3995 74.2055 11.4469C73.697 12.4943 73.1159 13.5043 72.4621 14.477C70.646 17.0207 69.7379 19.2652 69.7379 21.2104Z" fill="#B8DDFF"/>
</svg>
