<svg width="79" height="56" viewBox="0 0 79 56" fill="none" xmlns="http://www.w3.org/2000/svg">
<path d="M57.0979 21.2104C57.0979 24.4275 56.0083 27.0461 53.829 29.0661C49.8336 32.6573 47.8359 36.6974 47.8359 41.1864C47.8359 45.3013 49.2524 48.8176 52.0855 51.7355C54.846 54.5785 57.9697 56 61.4566 56C64.9434 56 67.7766 55.3267 69.9559 53.98C72.0625 52.6333 73.806 50.9125 75.1862 48.8176C77.7287 44.7027 79 39.6152 79 33.5551C79 21.9586 75.8037 12.7188 69.411 5.83567C65.4883 1.94522 62.2556 0 59.7131 0C57.1706 0 55.2092 0.785571 53.829 2.35671C52.4487 3.92786 51.7586 5.57381 51.7586 7.29459C51.7586 9.01536 52.0492 10.3995 52.6303 11.4469C53.1389 12.4943 53.7563 13.5043 54.4828 14.477C56.2262 17.0207 57.0979 19.2652 57.0979 21.2104ZM9.26207 21.2104C9.26207 24.4275 8.17242 27.0461 5.9931 29.0661C1.9977 32.6573 0 36.6974 0 41.1864C0 45.3013 1.41655 48.8176 4.24966 51.7355C7.01012 54.5785 10.1338 56 13.6207 56C17.1076 56 19.9407 55.3267 22.12 53.98C24.2267 52.6333 25.9338 50.9125 27.2414 48.8176C29.8566 44.7027 31.1641 39.6152 31.1641 33.5551C31.1641 21.9586 27.9678 12.7188 21.5752 5.83567C17.6524 1.94522 14.4198 0 11.8772 0C9.33472 0 7.37333 0.785571 5.9931 2.35671C4.61288 3.92786 3.92276 5.57381 3.92276 7.29459C3.92276 9.01536 4.21334 10.3995 4.79449 11.4469C5.30299 12.4943 5.88414 13.5043 6.53793 14.477C8.35403 17.0207 9.26207 19.2652 9.26207 21.2104Z" fill="#B8DDFF"/>
</svg>
