<svg width="20" height="20" viewBox="0 0 20 20" fill="none" xmlns="http://www.w3.org/2000/svg">
<path fill-rule="evenodd" clip-rule="evenodd" d="M13.6041 12.415L18.0875 16.8983C18.2451 17.056 18.3335 17.2698 18.3335 17.4928C18.3334 17.7157 18.2447 17.9295 18.0871 18.0871C17.9294 18.2446 17.7155 18.3331 17.4926 18.333C17.2697 18.333 17.0559 18.2443 16.8983 18.0866L12.415 13.6033C11.0747 14.6414 9.38937 15.1299 7.70174 14.9694C6.01412 14.809 4.451 14.0117 3.33037 12.7396C2.20975 11.4676 1.61579 9.81648 1.66935 8.12209C1.7229 6.4277 2.41993 4.81735 3.61864 3.61864C4.81735 2.41993 6.4277 1.7229 8.12209 1.66935C9.81648 1.61579 11.4676 2.20975 12.7396 3.33037C14.0117 4.451 14.809 6.01412 14.9694 7.70174C15.1299 9.38937 14.6414 11.0747 13.6033 12.415H13.6041ZM8.3333 13.3325C9.65939 13.3325 10.9312 12.8057 11.8688 11.868C12.8065 10.9303 13.3333 9.65855 13.3333 8.33247C13.3333 7.00639 12.8065 5.73462 11.8688 4.79694C10.9312 3.85925 9.65939 3.33247 8.3333 3.33247C7.00722 3.33247 5.73545 3.85925 4.79777 4.79694C3.86009 5.73462 3.3333 7.00639 3.3333 8.33247C3.3333 9.65855 3.86009 10.9303 4.79777 11.868C5.73545 12.8057 7.00722 13.3325 8.3333 13.3325Z" fill="white"/>
</svg>
