<svg width="24" height="24" viewBox="0 0 24 24" fill="none" xmlns="http://www.w3.org/2000/svg">
<path d="M13.9236 11.8001L11.2284 10.5425C10.9932 10.4333 10.8 10.5557 10.8 10.8161V13.1849C10.8 13.4453 10.9932 13.5677 11.2284 13.4585L13.9224 12.2009C14.1588 12.0905 14.1588 11.9105 13.9236 11.8001ZM12 0.480469C5.63758 0.480469 0.47998 5.63807 0.47998 12.0005C0.47998 18.3629 5.63758 23.5205 12 23.5205C18.3624 23.5205 23.52 18.3629 23.52 12.0005C23.52 5.63807 18.3624 0.480469 12 0.480469ZM12 16.6805C6.10318 16.6805 5.99998 16.1489 5.99998 12.0005C5.99998 7.85207 6.10318 7.32047 12 7.32047C17.8968 7.32047 18 7.85207 18 12.0005C18 16.1489 17.8968 16.6805 12 16.6805Z" fill="white"/>
</svg>
