<svg width="22" height="22" viewBox="0 0 22 22" fill="none" xmlns="http://www.w3.org/2000/svg">
<path d="M9.16663 11.9167C9.56029 12.4429 10.0625 12.8784 10.6393 13.1935C11.2161 13.5086 11.8538 13.696 12.5094 13.743C13.1649 13.7899 13.8229 13.6953 14.4387 13.4656C15.0545 13.2359 15.6137 12.8765 16.0783 12.4117L18.8283 9.66165C19.6632 8.79723 20.1252 7.63947 20.1147 6.43773C20.1043 5.236 19.6223 4.08644 18.7725 3.23665C17.9227 2.38687 16.7731 1.90484 15.5714 1.8944C14.3696 1.88396 13.2119 2.34593 12.3475 3.18082L10.7708 4.74832" stroke="white" stroke-width="2" stroke-linecap="round" stroke-linejoin="round"/>
<path d="M12.8333 10.0833C12.4396 9.55703 11.9374 9.12157 11.3606 8.80645C10.7838 8.49134 10.1461 8.30396 9.49051 8.25701C8.83496 8.21006 8.17698 8.30465 7.5612 8.53435C6.94543 8.76405 6.38625 9.1235 5.92161 9.58832L3.17161 12.3383C2.33671 13.2027 1.87474 14.3605 1.88518 15.5622C1.89563 16.764 2.37765 17.9135 3.22744 18.7633C4.07722 19.6131 5.22678 20.0951 6.42852 20.1056C7.63025 20.116 8.78801 19.654 9.65244 18.8192L11.2199 17.2516" stroke="white" stroke-width="2" stroke-linecap="round" stroke-linejoin="round"/>
</svg>
