<svg width="25" height="20" viewBox="0 0 25 20" fill="none" xmlns="http://www.w3.org/2000/svg">
<path d="M24.2468 2.37467C23.3897 2.75471 22.4678 3.01176 21.5009 3.12656C22.4881 2.5351 23.2457 1.59924 23.6033 0.482262C22.6796 1.03023 21.656 1.42775 20.5675 1.64202C19.6955 0.713287 18.453 0.132874 17.0772 0.132874C14.4375 0.132874 12.2966 2.27377 12.2966 4.91344C12.2966 5.28814 12.3391 5.65286 12.4211 6.00296C8.44802 5.80366 4.92526 3.90057 2.56724 1.00741C2.15582 1.71332 1.9198 2.5351 1.9198 3.41106C1.9198 5.06923 2.76439 6.5331 4.04644 7.39017C3.26316 7.36557 2.52553 7.15059 1.8813 6.79158C1.88094 6.8119 1.88094 6.83222 1.88094 6.85219C1.88094 9.16849 3.52949 11.1005 5.71602 11.5393C5.31529 11.6491 4.8921 11.7073 4.45679 11.7073C4.14805 11.7073 3.84893 11.6777 3.55729 11.6221C4.16552 13.5209 5.93064 14.9031 8.02305 14.942C6.38663 16.2244 4.32559 16.9884 2.08523 16.9884C1.70019 16.9884 1.31871 16.9659 0.945435 16.9213C3.05995 18.2783 5.57341 19.0694 8.27297 19.0694C17.0662 19.0694 21.8749 11.785 21.8749 5.46711C21.8749 5.25997 21.8703 5.05355 21.861 4.84891C22.7958 4.17509 23.6061 3.33334 24.2468 2.37467Z" fill="white"/>
</svg>
